<?xml version="1.0" encoding="UTF-8" ?>
<!DOCTYPE svg PUBLIC "-//W3C//DTD SVG 1.1//EN" "http://www.w3.org/Graphics/SVG/1.1/DTD/svg11.dtd">
<svg width="935pt" height="935pt" viewBox="0 0 935 935" version="1.1" xmlns="http://www.w3.org/2000/svg">
<g id="#000000ff">
<path fill="#000000" opacity="1.00" d=" M 302.61 284.58 C 320.79 260.72 348.56 243.02 378.93 241.05 C 429.79 241.00 480.65 240.92 531.50 241.08 C 487.57 299.90 443.24 358.43 399.19 417.17 C 340.11 495.47 281.51 574.13 222.43 652.44 C 204.50 675.22 177.18 690.76 148.07 692.69 C 99.39 692.84 50.68 692.79 1.98 692.76 C 26.04 659.91 50.38 627.26 74.38 594.37 C 120.68 531.07 167.44 468.08 213.91 404.89 C 243.48 364.79 273.04 324.68 302.61 284.58 Z" />
<path fill="#000000" opacity="1.00" d=" M 619.99 246.99 C 630.20 243.19 641.05 240.67 652.00 240.99 C 701.14 241.07 750.28 240.90 799.42 241.06 C 752.67 303.71 705.44 366.00 658.56 428.56 C 604.76 499.81 551.46 571.42 497.69 642.70 C 493.79 647.79 490.17 653.10 485.80 657.81 C 468.05 677.66 442.77 690.87 416.07 692.68 C 367.37 692.84 318.65 692.80 269.94 692.75 C 291.04 663.93 312.31 635.23 333.49 606.46 C 378.70 544.43 424.49 482.82 469.97 420.98 C 503.95 374.96 537.80 328.84 571.86 282.88 C 584.44 267.05 601.01 254.16 619.99 246.99 Z" />
<path fill="#000000" opacity="1.00" d=" M 786.53 405.63 C 789.71 404.26 793.09 406.79 794.24 409.71 C 795.56 413.20 796.35 416.86 797.57 420.40 C 816.27 478.98 865.76 527.04 925.46 542.53 C 929.28 543.21 932.72 546.10 933.53 549.95 C 932.15 553.31 929.34 556.07 925.68 556.70 C 863.43 572.86 811.80 624.36 795.59 686.60 C 794.89 689.97 792.71 693.69 788.94 694.03 C 784.77 694.39 782.04 690.30 781.32 686.68 C 765.20 624.70 713.98 573.33 652.08 556.94 C 649.23 556.21 646.08 555.12 644.72 552.28 C 642.79 549.01 645.25 544.80 648.49 543.53 C 652.01 542.16 655.75 541.44 659.34 540.26 C 718.06 521.89 765.94 472.02 781.40 412.39 C 782.02 409.53 783.59 406.62 786.53 405.63 Z" />
</g>
</svg>
