<?xml version="1.0" encoding="UTF-8" ?>
<!DOCTYPE svg PUBLIC "-//W3C//DTD SVG 1.1//EN" "http://www.w3.org/Graphics/SVG/1.1/DTD/svg11.dtd">
<svg width="935pt" height="935pt" viewBox="0 0 935 935" version="1.1" xmlns="http://www.w3.org/2000/svg">
<g id="#ffffffff">
<path fill="#ffffff" opacity="1.00" d=" M 369.30 242.17 C 378.42 240.23 387.76 241.35 396.99 241.00 C 441.87 241.02 486.76 240.96 531.64 241.03 C 484.95 303.20 438.16 365.29 391.47 427.45 C 335.96 500.99 280.94 574.89 225.45 648.44 C 206.85 674.43 176.26 692.27 143.99 692.78 C 138.32 692.17 132.67 692.97 127.00 692.79 C 98.00 692.78 69.00 692.79 40.00 692.78 C 27.34 692.63 14.65 693.09 2.01 692.55 C 52.56 624.52 102.31 555.91 152.79 487.82 C 202.70 420.05 252.67 352.33 302.61 284.58 C 318.89 263.21 342.64 246.98 369.30 242.17 Z" />
<path fill="#ffffff" opacity="1.00" d=" M 570.99 284.00 C 589.57 259.91 618.10 242.09 649.00 241.00 C 699.17 241.04 749.35 240.95 799.53 241.03 C 752.91 303.23 706.07 365.25 659.42 427.42 C 604.18 500.57 549.47 574.11 494.25 647.26 C 483.36 662.71 468.51 675.38 451.41 683.47 C 440.53 688.69 428.62 691.47 416.64 692.66 C 367.78 692.86 318.83 692.80 269.93 692.75 C 291.61 663.17 313.43 633.69 335.19 604.16 C 379.52 543.27 424.51 482.83 469.12 422.12 C 503.09 376.09 536.99 330.01 570.99 284.00 Z" />
<path fill="#ffffff" opacity="1.00" d=" M 786.54 405.63 C 791.00 403.89 794.70 408.63 795.23 412.64 C 812.03 474.69 863.17 526.44 925.58 542.56 C 929.43 543.11 932.70 546.32 933.57 549.98 C 932.11 552.92 929.89 555.91 926.43 556.48 C 864.93 572.20 813.65 622.33 796.45 683.42 C 795.41 686.96 794.96 691.33 791.31 693.26 C 787.11 695.88 782.17 691.69 781.54 687.42 C 765.66 625.42 714.74 573.89 652.97 557.18 C 650.08 556.41 646.74 555.72 645.12 552.91 C 643.40 550.75 643.89 547.64 645.64 545.67 C 647.54 543.07 650.96 542.76 653.81 541.88 C 714.93 525.04 765.29 474.04 781.33 412.69 C 781.86 409.67 783.51 406.71 786.54 405.63 Z" />
</g>
</svg>
